/* XPM */
static char *dee3864637eb402baa9886aededae2e890cACnCvndWywCnM[] = {
/* columns rows colors chars-per-pixel */
"64 64 12 1 ",
"  c None",
". c black",
"X c #00001F",
"o c #00003F",
"O c #000057",
"+ c #00005F",
"@ c #5F5F5F",
"# c #33B033",
"$ c #49D549",
"% c #0000DF",
"& c blue",
"* c white",
/* pixels */
"##########################............##########################",
"##########################............###############$##########",
"##########################............################$#########",
"######$$##################............#################$########",
"#######$##$$#######.......******&&&&&&X......######$############",
"###################.......******&&&&&&X......###################",
"###################.......******&&&&&&X......###########$#$#####",
"###################.......******&&&&&&X......############$$#####",
"########$##########.......******&&&&&&X......###################",
"#############......*************&&&&&&&&&&&&&......#############",
"#############......*************&&&&&&&&&&&&&......#############",
"#############......*************&&&&&&&&&&&&&......#############",
"#############......*************&&&&&&&&&&&&&......#############",
"#######......*******************&&&&&&&&&&&&&&&&&&&.......######",
"#######......*******************&&&&&&&&&&&&&&&&&&&.......######",
"#######......*******************&&&&&&&&&&&&&&&&&&&.......######",
"###### ......*******************&&&&&&&&&&&&&&&&&&&.......######",
"......@******&&&&&&*******&&&&&&......%&&&&&&......&&&&&&&......",
"......@******&&&&&&*******&&&&&&......%&&&&&&......&&&&&&&......",
"......@******&&&&&&*******&&&&&&......%&&&&&&......&&&&&&&......",
"......@******&&&&&&*******&&&&&&......%&&&&&&......&&&&&&&......",
"......@************&&&&&&&&&&&&&&&&&&&X......&&&&&&&&&&&&&......",
"......@************&&&&&&&&&&&&&&&&&&&X......&&&&&&&&&&&&&......",
"......@************&&&&&&&&&&&&&&&&&&&X......&&&&&&&&&&&&&......",
"......@************&&&&&&&&&&&&&&&&&&&X......&&&&&&&&&&&&&......",
"......@************&&&&&&&&&&&&&&&&&&&X......&&&&&&&&&&&&&......",
"......@************&&&&&&&&&&&&&&&&&&&X......&&&&&&&&&&&&&......",
"......@************&&&&&&&&&&&&&&&&&&&X......&&&&&&&&&&&&&......",
"......@************&&&&&&&&&&&&&&&&&&&X......&&&&&&&&&&&&&......",
"......@************&&&&&&&&&&&&&&&&&&&X......&&&&&&&&&&&&&......",
"......@************&&&&&&&&&&&&&&&&&&&X......&&&&&&&&&&&&&......",
"......@************&&&&&&&&&&&&&&&&&&&X......&&&&&&&&&&&&&......",
"......@************&&&&&&&&&&&&&&&&&&&X......&&&&&&&&&&&&&......",
"......@************&&&&&&&&&&&&&&&&&&&X......&&&&&&&&&&&&&......",
"......@************&&&&&&&&&&&&&&&&&&&X......&&&&&&&&&&&&&......",
"......@************&&&&&&&&&&&&&&&&&&&X......&&&&&&&&&&&&&......",
"......@************&&&&&&&&&&&&&&&&&&&X......&&&&&&&&&&&&&......",
"......@************&&&&&&&&&&&&&&&&&&&X......&&&&&&&&&&&&&......",
"......@******&&&&&&*******&&&&&&&&&&&&X......&&&&&&&&&&&&&......",
"......@******&&&&&&*******&&&&&&&&&&&&X......&&&&&&&&&&&&&......",
"......@******&&&&&&*******&&&&&&&&&&&&X......&&&&&&&&&&&&&......",
"......@******&&&&&&*******&&&&&&&&&&&&X......&&&&&&&&&&&&&......",
"......@******&&&&&&*******&&&&&&&&&&&&X......&&&&&&&&&&&&&......",
"......+&&&&&&&&&&&&&&&&&&&******......%&&&&&&......&&&&&&&......",
"......+&&&&&&&&&&&&&&&&&&&******......%&&&&&&......&&&&&&&......",
"......+&&&&&&&&&&&&&&&&&&&******......%&&&&&&......&&&&&&&......",
"......+&&&&&&&&&&&&&&&&&&&******......%&&&&&&......&&&&&&&......",
"#######......&&&&&&&&&&&&&&&&&&&&&&&&&&&&&&&&&&&&&&.......######",
"#######......&&&&&&&&&&&&&&&&&&&&&&&&&&&&&&&&&&&&&&.......######",
"#######......&&&&&&&&&&&&&&&&&&&&&&&&&&&&&&&&&&&&&&.......######",
"#######......&&&&&&&&&&&&&&&&&&&&&&&&&&&&&&&&&&&&&&.......######",
"#############......&&&&&&&&&&&&&&&&&&&&&&&&&&......########$$###",
"#############......&&&&&&&&&&&&&&&&&&&&&&&&&&......##########$##",
"##$$$$#######......&&&&&&&&&&&&&&&&&&&&&&&&&&......#############",
"#############......&&&&&&&&&&&&&&&&&&&&&&&&&&......#############",
"#########$#########ooooooo&&&&&&&&&&&&Ooooooo###################",
"###################.......&&&&&&&&&&&&X......###################",
"##########$###$####.......&&&&&&&&&&&&X......##########$$$$$####",
"##########$####$###.......&&&&&&&&&&&&X......#########$#########",
"####$###########$##.......&&&&&&&&&&&&X......########$##########",
"######$#########$#########............##########################",
"##########################............##########################",
"#############$############............##########################",
"##########################............##########################"
};
