/* XPM */
static char *faf6e706728845b9bd64e3257b68fc4etRrm4XBKsRwxCq59[] = {
/* columns rows colors chars-per-pixel */
"64 64 16 1 ",
"  c #2B180C",
". c #361607",
"X c gray22",
"o c #402009",
"O c #402109",
"+ c #5E3519",
"@ c gray37",
"# c #824923",
"$ c #9E592A",
"% c #DE7D3C",
"& c #33B033",
"* c #D4C32B",
"= c #D6C52C",
"- c #E0CE2D",
"; c #FAFA70",
": c gray75",
/* pixels */
"&&&&&......................................................&&&&&",
"&&&&&......................................................&&&&&",
"&&&&&......................................................&&&&&",
"&&&&&......................................................&&&&&",
"&&&&&...--...######################################...==...&&&&&",
"&&&&&...--...######################################...==...&&&&&",
"&&&&&...--...######################################...==...&&&&&",
"&&&&&...;;...%%%%%%%%%%##########%%%%%%%%%%%%%%%%%%...;;...&&&&&",
"&&&&&...;;...%%%%%%%%%%##########%%%%%%%%%%%%%%%%%%...;;...&&&&&",
"&&&&&...;;...%%%%%%%%%%##########%%%%%%%%%%%%%%%%%%...;;...&&&&&",
"&&&&&...;;...%%%%%%%%%%##########%%%%%%%%%%%%%%%%%%...;;...&&&&&",
"&&&&&...--...#######$%%%%%%%%%%%%%%%###############...==...&&&&&",
"&&&&&...--...#######$%%%%%%%%%%%%%%%###############...==...&&&&&",
"&&&&&...--...#######$%%%%%%%%%%%%%%%###############...==...&&&&&",
"&&&&&...--...######################################...==...&&&&&",
"&&&&&...--...######################################...==...&&&&&",
"&&&&&...--...######################################...==...&&&&&",
"&&&&&...--...######################################...==...&&&&&",
"&&&&&...--...##################..##################...==...&&&&&",
"&&&&&...--...##################..##################...==...&&&&&",
"&&&&&...--...##################..##################...==...&&&&&",
"&&&&&...--.....................;;.....................==...&&&&&",
"&&&&&...--.....................;;.....................==...&&&&&",
"&&&&&...--.....................;;.....................==...&&&&&",
"&&&&&...--.....................;;.....................==...&&&&&",
"&&&&&...--------------------...**...====================...&&&&&",
"&&&&&...--------------------...**...====================...&&&&&",
"&&&&&...--------------------...**...====================...&&&&&",
"&&&&&...OOOOOOOOOOOOOOOOOOOO...**...ooooooooooooooooOOoo...&&&&&",
"&&&&&..........................**..........................&&&&&",
"&&&&&..........................**..........................&&&&&",
"&&&&&..........................**..........................&&&&&",
"&&&&&...--...               ...**...               ...--...&&&&&",
"&&&&&...--...               ...**...               ...--...&&&&&",
"&&&&&...--...               ...**...               ...--...&&&&&",
"&&&&&...--...               ...**...               ...--...&&&&&",
"&&&@@...--...++++++++++++++++++..++++++++++++++++++...--...@@&&&",
"&&&@@...--...++++++++++++++++++..++++++++++++++++++...--...@@&&&",
"&&&@@...--...++++++++++++++++++..++++++++++++++++++...--...@@&&&",
":::@@...;;...###############++++++++###############...;;...@@:::",
":::@@...;;...###############++++++++###############...;;...@@:::",
":::@@...;;...###############++++++++###############...;;...@@:::",
":::@@...;;...###############++++++++###############...;;...@@:::",
":::@@...;;...##################++##################...;;...@@:::",
":::@@...;;...##################++##################...;;...@@:::",
":::@@...;;...##################++##################...;;...@@:::",
":::@@...--........############################........--...@@:::",
":::@@...--........############################........--...@@:::",
":::@@...--........############################........--...@@:::",
":::@@...--........############################........--...@@:::",
":::@@...-------..................................-------...@@:::",
":::@@...-------..................................-------...@@:::",
":::@@...-------..................................-------...@@:::",
":::@@.............XXXXXXXXXXXXXXXXXXXXXXXXXXXX.............@@:::",
":::@@.............XXXXXXXXXXXXXXXXXXXXXXXXXXXX.............@@:::",
":::@@.............XXXXXXXXXXXXXXXXXXXXXXXXXXXX.............@@:::",
":::@@.............XXXXXXXXXXXXXXXXXXXXXXXXXXXX.............@@:::",
"&&&@@@@@@@@@@@@@@@@@@@@@@@@@@@@@@@@@@@@@@@@@@@@@@@@@@@@@@@@@@&&&",
"&&&@@@@@@@@@@@@@@@@@@@@@@@@@@@@@@@@@@@@@@@@@@@@@@@@@@@@@@@@@@&&&",
"&&&@@@@@@@@@@@@@@@@@@@@@@@@@@@@@@@@@@@@@@@@@@@@@@@@@@@@@@@@@@&&&",
"&&&&&::::::::::::::::::::::::::::::::::::::::::::::::::::::&&&&&",
"&&&&&::::::::::::::::::::::::::::::::::::::::::::::::::::::&&&&&",
"&&&&&::::::::::::::::::::::::::::::::::::::::::::::::::::::&&&&&",
"&&&&&::::::::::::::::::::::::::::::::::::::::::::::::::::::&&&&&"
};
