/* XPM */
static char *_90bf9f2598040afe1d7198caac69167ok0HVSKvebIXIvSj[] = {
/* columns rows colors chars-per-pixel */
"64 64 5 1 ",
"  c #0E700E",
". c #208E20",
"X c #2DA32D",
"o c #33B033",
"O c #49D549",
/* pixels */
"oooooooooooooooooooooooooooooooooooooooooooooooooooooooooooooooo",
"ooooooooooooooooooooooo.ooooXoooooooooooooooooooooooooo.ooooXooo",
"ooooooooooooooXoooooooo ooooo XoooooooooooooooXoooooooo ooooo Xo",
".oOoooo ooooo.ooooo.oooooo.ooooo.oOoooo ooooo.ooooo.oooooo.ooooo",
"ooooooooOooooooooooooooooooooXooooooooooOooooooooooooooooooooXoo",
"oo..ooooo.oooXo. ooooo.ooooooooooo..ooooo.oooXo. ooooo.ooooooooo",
"ooooooooOooooooooooooooOooOoooooooooooooOooooooooooooooOooOooooo",
"XooOoOooooooooooooooOoooooooooooXooOoOooooooooooooooOooooooooooo",
"oooooooooo.ooooo oooooo ooooo.oooooooooooo.ooooo oooooo ooooo.oo",
"ooooooo.ooOooooooooooooooOooooooooooooo.ooOooooooooooooooOoooooo",
" oooooooooooo.ooooo.oooooooooooo oooooooooooo.ooooo.oooooooooooo",
"ooXooooooooooooo.ooXOoooooooooooooXooooooooooooo.ooXOooooooooooo",
"ooooooooo.ooooo oooooo oXooo.oooooooooooo.ooooo oooooo oXooo.ooo",
"ooOoooXooooooooooooooooXooooooooooOoooXooooooooooooooooXoooooooo",
"Oooo oooooooooooooooooo.ooooooooOooo oooooooooooooooooo.oooooooo",
"oooooooooooXoooooooooooooooXoooooooooooooooXoooooooooooooooXoooo",
".ooooo oooooo.ooooo.oooooo ooooo.ooooo oooooo.ooooo.oooooo ooooo",
"ooooooooooXoooooooooooooooooooooooooooooooXooooooooooooooooooooo",
"oo .ooooo ooooo.oooooo.ooooooooOoo .ooooo ooooo.oooooo.ooooooooO",
"oooooooooooooooooooooooooooooooooooooooooooooooooooooooooooooooo",
"oooooooooooooooXoooooooooooooooooooooooooooooooXoooooooooooooooo",
"oXoooooooo.ooooo oooooo.ooooo.oooXoooooooo.ooooo oooooo.ooooo.oo",
"ooooooo.ooooooooooo.oooooo.oooooooooooo.ooooooooooo.oooooo.ooooo",
"oooooooooOooo ooooo oooooooooooooooooooooOooo ooooo oooooooooooo",
"Xoo.oooooooooooo.oooooooooooooooXoo.oooooooooooo.ooooooooooooooo",
"oooooXooo oooooooooooooooooo ooooooooXooo oooooooooooooooooo ooo",
"ooooXooooooooooooooXooooooooooooooooXooooooooooooooXoooooooooooo",
"ooO.oooooo.ooooo.oooooo.ooooo.ooooO.oooooo.ooooo.oooooo.ooooo.oo",
"ooooooooooooooooooooooooXoooooooooooooooooooooooooooooooXooooooo",
".ooooo oooooo.oooOo.oooooo ooooo.ooooo oooooo.oooOo.oooooo ooooo",
"ooooooooooooooooooOooXooooooooooooooooooooooooooooOooXoooooooooo",
"oo  ooooo.ooooo.oooooo.ooooo.ooooo  ooooo.ooooo.oooooo.ooooo.ooo",
"oooooooooooooooooooooooooooooooooooooooooooooooooooooooooooooooo",
"ooooooooooooooooooooooo.ooooXoooooooooooooooooooooooooo.ooooXooo",
"ooooooooooooooXoooooooo ooooo XoooooooooooooooXoooooooo ooooo Xo",
".oOoooo ooooo.ooooo.oooooo.ooooo.oOoooo ooooo.ooooo.oooooo.ooooo",
"ooooooooOooooooooooooooooooooXooooooooooOooooooooooooooooooooXoo",
"oo..ooooo.oooXo. ooooo.ooooooooooo..ooooo.oooXo. ooooo.ooooooooo",
"ooooooooOooooooooooooooOooOoooooooooooooOooooooooooooooOooOooooo",
"XooOoOooooooooooooooOoooooooooooXooOoOooooooooooooooOooooooooooo",
"oooooooooo.ooooo oooooo ooooo.oooooooooooo.ooooo oooooo ooooo.oo",
"ooooooo.ooOooooooooooooooOooooooooooooo.ooOooooooooooooooOoooooo",
" oooooooooooo.ooooo.oooooooooooo oooooooooooo.ooooo.oooooooooooo",
"ooXooooooooooooo.ooXOoooooooooooooXooooooooooooo.ooXOooooooooooo",
"ooooooooo.ooooo oooooo oXooo.oooooooooooo.ooooo oooooo oXooo.ooo",
"ooOoooXooooooooooooooooXooooooooooOoooXooooooooooooooooXoooooooo",
"Oooo oooooooooooooooooo.ooooooooOooo oooooooooooooooooo.oooooooo",
"oooooooooooXoooooooooooooooXoooooooooooooooXoooooooooooooooXoooo",
".ooooo oooooo.ooooo.oooooo ooooo.ooooo oooooo.ooooo.oooooo ooooo",
"ooooooooooXoooooooooooooooooooooooooooooooXooooooooooooooooooooo",
"oo .ooooo ooooo.oooooo.ooooooooOoo .ooooo ooooo.oooooo.ooooooooO",
"oooooooooooooooooooooooooooooooooooooooooooooooooooooooooooooooo",
"oooooooooooooooXoooooooooooooooooooooooooooooooXoooooooooooooooo",
"oXoooooooo.ooooo oooooo.ooooo.oooXoooooooo.ooooo oooooo.ooooo.oo",
"ooooooo.ooooooooooo.oooooo.oooooooooooo.ooooooooooo.oooooo.ooooo",
"oooooooooOooo ooooo oooooooooooooooooooooOooo ooooo oooooooooooo",
"Xoo.oooooooooooo.oooooooooooooooXoo.oooooooooooo.ooooooooooooooo",
"oooooXooo oooooooooooooooooo ooooooooXooo oooooooooooooooooo ooo",
"ooooXooooooooooooooXooooooooooooooooXooooooooooooooXoooooooooooo",
"ooO.oooooo.ooooo.oooooo.ooooo.ooooO.oooooo.ooooo.oooooo.ooooo.oo",
"ooooooooooooooooooooooooXoooooooooooooooooooooooooooooooXooooooo",
".ooooo oooooo.oooOo.oooooo ooooo.ooooo oooooo.oooOo.oooooo ooooo",
"ooooooooooooooooooOooXooooooooooooooooooooooooooooOooXoooooooooo",
"oo  ooooo.ooooo.oooooo.ooooo.ooooo  ooooo.ooooo.oooooo.ooooo.ooo"
};
