/* XPM */
static char *d02a33ee01c74b67d59db2133f0fc12cq9sgXSHPcNgyaxJe[] = {
/* columns rows colors chars-per-pixel */
"64 64 40 1 ",
"  c #202020",
". c #252220",
"X c #203120",
"o c #223922",
"O c #781028",
"+ c #7E1128",
"@ c #523420",
"# c #0E700E",
"$ c #117227",
"% c #107828",
"& c #356C24",
"* c #347025",
"= c #6D4620",
"- c #704020",
"; c #D82828",
": c #946A47",
"> c #A07840",
", c #208A20",
"< c #208E20",
"1 c #2DA32D",
"2 c #32AB32",
"3 c #33B033",
"4 c #439A27",
"5 c #4BA525",
"6 c #40A028",
"7 c #10C814",
"8 c #22D714",
"9 c #10F808",
"0 c #49D549",
"q c #D7C818",
"w c #F8F800",
"e c #C3964A",
"r c #D8A850",
"t c #C5A47F",
"y c #3050F8",
"u c #D0B088",
"i c #B8F8A0",
"p c #F8E0B8",
"a c #FAEBD2",
"s c white",
/* pixels */
"333333333333333333333    66666666666666    333333333333333333333",
"333333333333333333333    66666666666666    333333333333<33331333",
"333333333333331333333    66666666666666    333133333333#33333#13",
"<303333#33333<3333   6666666666666666666666   33333<333333<33333",
"333333330333333333   6666666666666666666666   333333333333333133",
"33<<33333<3331    6669999999999999999999999666    3333<333333333",
"33333333033333    6669999999999999999999999666    33333033033333",
"13303033333333    6669999999999999999999999666    33033333333333",
"3333333333<   666699999999999999999999999999996666   33#33333<33",
"3333333<330   666699999999999999999999999999996666   33330333333",
"#3333333333   666699999999999999999999999999996666   33333333333",
"33133333333   9999>>>wwwwwwwwwwwwwwwwwwwwww>>>9999   33333333333",
"333333333<3   9999>>>wwwwwwwwwwwwwwwwwwwwww>>>9999   3#31333<333",
"3303331    666>>>>wwwwwwwwwwwwwwwwwwwwwwwwwwwwrrrr666    3333333",
"0333#33    666>>>>wwwwwwwwwwwwwwwwwwwwwwwwwwwwrrrr666    3333333",
"3333333    666>>>>wwwwwwwwwwwwwwwwwwwwwwwwwwwwrrrr666    3313333",
">>>>uuu-------rrrrwwwwwwwrrrwwwwwwwwwww>>>>wwwwwww-------uuu>>>>",
">>>>uuu-------rrrrwwwwwwwrrrwwwwwwwwwww>>>>wwwwwww-------uuu>>>>",
">>>>uuu-------rrrrwwwwwwwrrrwwwwwwwwwww>>>>wwwwwww-------uuu>>>>",
"----ppppppp>>>wwwwwwwrrrrwwwwwwwwwwq>>>uuuu>>>wwww>>>ppppppp----",
"----ppppppp>>>wwwwwwwrrrrwwwwwwwwwwq>>>uuuu>>>wwww>>>ppppppp----",
"3133---uuuu---rrrr>>>rrrrwwwwwwwwwwq>>>uuuuppprrrr>>>uuuu---3<33",
"3333---uuuu---rrrr>>>rrrrwwwwwwwwwwq>>>uuuuppprrrr>>>uuuu---3333",
"3333---uuuu---rrrr>>>rrrrwwwwwwwwwwq>>>uuuuppprrrr>>>uuuu---3333",
"133<333    www---->>>rrrrwwwwwwwrrre>>>ppppuuu----www    3333333",
"3333313    www---->>>rrrrwwwwwwwrrre>>>ppppuuu----www    333#333",
"3333133    www---->>>rrrrwwwwwwwrrre>>>ppppuuu----www    3333333",
"330<333    www>>>>   >>>>rrrrrrr---:uuu----   >>>>www    3333<33",
"3333333    www>>>>   >>>>rrrrrrr---:uuu----   >>>>www    3333333",
"<33333#    >>>----sssyyyy-------pppt---yyyysss----rrr    3#33333",
"3333333    >>>----sssyyyy-------pppt---yyyysss----rrr    3333333",
"33##333    >>>----sssyyyy-------pppt---yyyysss----rrr    333<333",
"33333333333   >>>>pppyyyyssspppppppasssyyyyppp       33333333333",
"33333333333   >>>>pppyyyyssspppppppasssyyyyppp       33<33331333",
"33333333333   >>>>pppyyyyssspppppppasssyyyyppp       33#33333#13",
"<303333    uuuiiii>>>pppppppppppppppppppppp>>>    3<333333<33333",
"3333333    uuuiiii>>>pppppppppppppppppppppp>>>    33333333333133",
"33<<333    >>>iiii-------uuuuuuuuuuuuuu-------    3333<333333333",
"3333333    >>>iiii-------uuuuuuuuuuuuuu-------    33333033033333",
"1330303    >>>iiii-------uuuuuuuuuuuuuu-------    33033333333333",
"3333333333<   %%%%---66666666666666*   iiiiiii    33333#33333<33",
"3333333<330   %%%%---66666666666666*   iiiiiii    33333330333333",
"#3333333333ooX$$$$===44445555555444&   iiiiiii....2,233333333333",
"33133333333333    666----wwwwwww---@   iiiiiii----   33333333333",
"333333333<3333    666----wwwwwww---@   iiiiiii----   3#31333<333",
"33033313333   %%%%9999999wwwwwww9997%%%uuuupppuuuu   33133333333",
"0333#333333   %%%%9999999wwwwwww9997%%%uuuupppuuuu   33<33333333",
"33333333333   %%%%9999999wwwwwww9997%%%uuuupppuuuu   33333313333",
"<33333#333333<    666999999999999998666    ppppppp   33333#33333",
"33333333331333    666999999999999998666    ppppppp   33333333333",
"33#<33333#3333    666999999999999998666    ppppppp   3<333333330",
"33333333333333                                    33333333333333",
"33333333333333                                    33333333333333",
"3133333333<333    OOO>>>>   3<333133333333<33333#333333<33333<33",
"3333333<333333    OOO>>>>   33333333333<33333333333<333333<33333",
"3333333330333#    OOO>>>>   33333333333330333#33333#333333333333",
"133<3333333   OOOO;;;OOOO   3333133<333333333333<333333333333333",
"333331333#3   OOOO;;;OOOO   #333333331333#333333333333333333#333",
"33331333333   ++++;;;++++   333333331333333333333331333333333333",
"330<333333<   ;;;;;;;;;;;   3<33330<333333<33333<333333<33333<33",
"33333333333   ;;;;;;;;;;;   333333333333333333333333333313333333",
"<33333#333333<           3#33333<33333#333333<33303<333333#33333",
"33333333333333           333333333333333333333333303313333333333",
"33##33333<3333           333<33333##33333<33333<333333<33333<333"
};
