/* XPM */
static char *bg1674592799[] = {
/* columns rows colors chars-per-pixel */
"64 64 121 2 ",
"   c #2F2F2F",
".  c #362F27",
"X  c #3E2D25",
"o  c #322F2E",
"O  c #392E28",
"+  c #2C3726",
"@  c #2B3822",
"#  c #2F312D",
"$  c #303427",
"%  c #333B25",
"&  c #31312D",
"*  c #3C3028",
"=  c #353B2C",
"-  c #302F30",
";  c #2F3030",
":  c #313131",
">  c #3B3B3B",
",  c #422E25",
"<  c #46352C",
"1  c #4C3428",
"2  c #553A2C",
"3  c #523B30",
"4  c #0E700E",
"5  c #3D4231",
"6  c #4B4235",
"7  c #464D35",
"8  c #444A39",
"9  c #564A3B",
"0  c #5A4F3F",
"q  c #435B32",
"w  c #535C3D",
"e  c #6D4E3E",
"r  c #724D39",
"t  c #454544",
"y  c #4B4B4C",
"u  c #594F42",
"i  c #555D44",
"p  c #5B5B5B",
"a  c #6F5343",
"s  c #596342",
"d  c #5E664B",
"f  c #5B7A44",
"g  c #69764D",
"h  c #69784B",
"j  c #6C7951",
"k  c #727F55",
"l  c #626262",
"z  c #86583D",
"x  c #945D3C",
"c  c #9D633F",
"v  c #AB6137",
"b  c #A5613C",
"n  c #AA6138",
"m  c #B16136",
"M  c #815942",
"N  c #9C6345",
"B  c #847156",
"V  c #8E7E55",
"C  c #84735A",
"Z  c #8A775D",
"A  c #8E7A5E",
"S  c #917B57",
"D  c #937B59",
"F  c #A06342",
"G  c #A16848",
"H  c #B7724C",
"J  c #B8724C",
"K  c #BD7B56",
"L  c #B57A5B",
"P  c #CC7A4E",
"I  c #D37A47",
"U  c #D37A49",
"Y  c #C37A54",
"T  c #CA7C51",
"R  c #208E20",
"E  c #2DA32D",
"W  c #33B033",
"Q  c #7F905B",
"!  c #49D549",
"~  c #8D8256",
"^  c #8F8358",
"/  c #8F8D59",
"(  c #908258",
")  c #908E5B",
"_  c #94925E",
"`  c #8FAE5C",
"'  c #92AB5F",
"]  c #90B35E",
"[  c #90B95D",
"{  c #859365",
"}  c #879A60",
"|  c #8B9D66",
" . c #8E9E6C",
".. c #909F70",
"X. c #8DA064",
"o. c #8EA069",
"O. c #93A664",
"+. c #98A664",
"@. c #93AB61",
"#. c #91A56A",
"$. c #93A868",
"%. c #92B760",
"&. c #8FC15C",
"*. c #92C15F",
"=. c #93DD5F",
"-. c #8ECC66",
";. c #96C765",
":. c #95CA62",
">. c #92C66D",
",. c #96D564",
"<. c #98D366",
"1. c #94DC62",
"2. c #99D965",
"3. c #97D66B",
"4. c #868686",
"5. c #88888A",
"6. c #A4A4A4",
"7. c #B0B0AF",
"8. c #B1B1B1",
"9. c #CACACA",
"0. c gray86",
/* pixels */
"W W W W W W W W W W W W W W W W W W W W W W W W W W W W W W W W W W W W W W W W W W W W W W W W W W W W W W W W W W W W W W W W ",
"W W W W W W W W W W W W W W W W W W W W W W W R W W W W E W W W W W W W W W W W W W W W W W W W W W W W W W W R W W W W E W W W ",
"W W W W W W W W W W W W W W E W W W W W W W W t : > : : : 4 E W W W W W 0.> > : : > 7.W W W E W W W W W W W W 4 W W W W W 4 E W ",
"R W ! W W W W 4 W W W W W R W W W W W R W W W > # ; : ; - W W W R W ! W 0.; ; ;     7.W W R W W W W W R W W W W W W R W W W W W ",
"W W W W W W W W ! W W W W W W W W 6.: > : > : ..#.#.#.#.#.> : > : > : > 5 #.o.#.#.#.i > : > : > W W W W W W W W W W W W W E W W ",
"W W R R W W W W W R W W W E W R 4 6.; ; ; ; ; | @.@.@.@.@.  # - - #   : 5 @.@.@.@.@.w o # ; # ; 4 W W W W W R W W W W W W W W W ",
"W W W W W W W W ! W W W W W > > > d #.o.#.8 # o.@.@.@.@.O.  # O.o.#...: 5 @.@.@.@.@.w ; { o.o.$.W W W W W W W ! W W ! W W W W W ",
"E W W ! W ! W W W W W W W W     : s @.@.@.8 # X.@.@.@.@.@.  # ' @.@.#.: 5 @.@.@.' @.w : } @.@.@.W W W W ! W W W W W W W W W W W ",
"W W W W W W W W W W R W W W & 7 O.$.' @.@.@.X.5 $ O.@.@.@.@.@.@.@.@.@.@.@.@.@.@.g & k O.$.@.@.@.: : : : W W W 4 W W W W W R W W ",
"W W W W W W W R W W ! W W W : 7 @.@.@.@.@.@.@.% : $.' @.@.@.@.' @.@.@.@.@.@.@.@.g - Q @.@.@.@.' $ : : : W W W W W ! W W W W W W ",
"4 W W W W W W W W W : : : : - q 2.1.1.2.2.[ @.$.#.@.@.@.@.@.@.@.@.@.@.' @.@.@.@.O.O.X.' <.1.2.2.$.$.& ; : : : > W W W W W W W W ",
"W W E W W W W W W W   : : -   q 1.=.1.=.1.[ @.@.@.@.@.@.@.@.@.@.@.@.@.@.' @.@.@.@.O.' ' <.=.=.=.%.@.& # -   ;   W W W W W W W W ",
"W W W W W W W W > : ; + 3.>.; # + f =.&.` ] @.@.@.@.@.@.@.@.@.@.@.@.@.@.@.%.@.@.@.@.@.@.` ` 2.1.$ $ : - #.#.; : : > W W R W W W ",
"W W ! W W W E W   ; : @ 1.-.; ; o f =.*.@.@.@.@.@.@.@.@.@.@.@.' @.@.@.@.@.@.@.@.@.@.@.@.@.@.2.1.+ - : & @.@.: : : > W W W W W W ",
"! W W W 4 W :   O.' @.#.# = @.@.@.@.@.' @.@.@.@.@.@.' @.@.@.@.@.@.@.@.@.@.@.@.@.@.@.@.@.^ S S S O.@.@.O.# # @.@.$.O.  t W W W W ",
"W W W W W W     @.@.@.#.: = @.@.@.@.@.@.@.@.@.' @.@.@.@.@.@.' @.@.@.' @.@.@.@.' @.@.@.@.^ S S D @.@.@.@.& # @.@.@.o.  t W W W W ",
"R W W W W W - # @.@.@.@.$.$.@.@.@.h # $ & $ + o.@.@.@.@.@.@.@.@.@.@.@.' @.@.@.@.@.@.@.@.~ D D S S V @.@.+.O.@.@.@.#.: t W W W W ",
"W W W W W W : - @.@.@.@.' @.@.@.@.g   ; # # &  .' @.@.@.@.@.@.' @.@.@.@.@.@.@.%.' @.@.@.( D D S D D @.@.@.@.@.@.@.#.; t W W W W ",
"W W 4 R : : - ; $ $ ' ` 1.<.@.@.@.g # j $.$.@.@.@.@.@.@.@.$ & # = ' @.@.@.@.@.@.@.@.@.@.' +.~ D D D S S @.@.@.@.& # : t W W W ! ",
"W W W W :   - ; # # @.` 1.1.@.@.@.g : j @.@.@.@.' @.@.@.@.& # : & @.@.@.' @.@.@.@.@.@.' @.' S D D D D D @.@.@.@.o -   t W W W W ",
"W W : # $.@.1.1.1.=.1.2.@.' @.@.@.' @.@.@.@.@.@.@.@.@.$ # $.@.@.@.@.@.@.@.@.@.@.@.@.@.@.@.@.S D D D D D ' ' @.@.D D D C - p W W ",
"W E : ; $.' 1.=.1.1.=.2.@.@.@.@.@.@.@.@.@.@.@.@.@.@.@.& # @.@.@.@.@.@.@.@.@.@.' @.@.' @.@.@.~ D D D D D @.' @.@.D D D C   p W W ",
"W W : : $.' 1.=.` ` ` ] ' @.@.@.@.@.@.;.1.[ @.@.@.$ # # # @.@.@.@.@.@.@.@.@.' @.@.@.@.@.@.@.' ' S D D D @.' @.@.+.+.O.| ; p W W ",
"W W : # $.@.1.1.' @.@.@.@.@.@.@.@.@.@.:.1.[ @.@.@.& # #   @.@.@.@.@.' @.@.@.@.@.@.@.@.@.' +.' ' S D D D @.@.@.@.@.@.@.| : p W W ",
"E W W R & # # + @.@.@.@.@.@.@.' @.@.@.*.=.[ @.@.@.@.$.@.@.@.' @.@.@.@.@.@.@.@.@.' +.' @.@.' ~ S D D D D @.@.@.@.V Z   t W W W W ",
"W W W W :   # # @.@.@.@.@.@.@.@.@.@.%.:.1.[ ' @.@.@.@.@.@.@.@.@.@.@.@.@.@.' @.@.' ' +.' @.@.~ D D D D D @.@.@.+.S Z   t 4 W W W ",
"W W W W E W o ; & & @.@.' @.@.@.@.@.@.' ' @.@.@.@.@.@.@.@.@.@.@.@.@.@.@.@.] @.@._ D D D +.@.( D D D @.@.@.O.S D o > W W W W W W ",
"W W ! R W W ; ; & & @.@.' @.@.@.@.@.@.@.@.' @.@.@.@.@.@.@.@.@.@.@.' @.@.@.@.@.@._ D D D @.@.S D D D @.@.' @.D D   > W W W R W W ",
"W W W W : : $.@.$.@.1.1.1.2.@.@.@.@.@.@.@.@.' @.' @.@.%.@.@.@.@.@.@.@.@.@.@.@.@.+.+._ D S S D S D D S S D S D D D Z : t W W W W ",
"R W W W : # @.@.@.' 1.1.1.,.' @.@.@.@.@.@.@.@.@.@.@.@.' @.@.@.' @.@.@.' @.' ' @.' ' / D D D D D D D D D D D D D D Z & t W W W W ",
"W W W W : # @.@.@.@.1.1.' @.@.@.@.@.@.s & Q ' @.@.@.@.@.@.& & @.@.@.@.@.@.@.@.@.' ' ) D D D D D D D D D D D D D D D D C   p W W ",
"W W 4 4 : # $.@.@.` 1.2.@.@.@.' ' @.@.w : { ' ' @.@.@.@.@.o & @.+.%.@.@.@.@.@.' ' ' ) D D D D D D D D D D D D D D D D C # p W W ",
"W W W W W W ; # ' $.# # - = @.' @.g & g @.@.' @.@.@.@.@.@.  - o = ' ' D ( @.@.' _ D D D D D D D D D D D o - - - D D D C : p W W ",
"W W W W W W :   @.$.o & & = @.@.@.g & g @.@.@.@.@.@.@.@.@.&   - & @.+.D ( ' +.' _ D D D D D D D D D D D o # - o D D D C - p W W ",
"W W W W W W : - #   : # @.$.@.@.@.g & o     # o.' @.@.@.@.@.@.@.@.@.+.D D S S S D D D D D D , o D D D D D A - -   o # t W 4 E W ",
"R W ! W W W ; - # o o $ @.' ` ' @.g # # #   ;  .@.@.@.' @.@.' @.+.' +.D S D D D D D D D D D = & D D D D D D     - # - t W W W W ",
"W W W W W W W W ; - ; $ @.] =.<.' @.@.@.@.7 - # : O.@.@.@.@.@.D D @.@.@.' S S D D D D D D D * - D D D D D D D D - > W W W E W W ",
"W W R R W W W W : -   $ ' ] 1.:.@.@.' @.@.7     o O.@.@.@.@.+.S D @.@.' +.S D D D D D D D D & : D D D D D D D D - > W W W W W W ",
"W W W W W W W W : & @.@.' | # 7 @.@.@.s # Q @.@.@.@.@.@.@.- o D D ' +.' _ D D D D D 9 - & & A D D D o o o & S D : > ! W W W W W ",
"E W W ! W ! W W # & O.@.@.| # 7 @.@.@.s # Q @.@.@.@.@.$.@.$ & S S ' @.' +.D D D D D 9 o & & A D D D & & o o D D - > W W W W W W ",
"W W W W W W W W - # # &   = @.@.@.g # j $.@.@.@.@.& -   # @.@.@.' ' +.S D D D D D D D D S D D D D D D D o   & ; W W W W W R W W ",
"W W W W W W W R   : - ; + = ` @.@.g & j $.@.$.$.@.& : & & $.@.' ' +.+.D D D D D A V S D D D D D D D D D o & - - W ! W W W W W W ",
"4 W W W W W W W W W : @ 1.,.@.@.@.g & : - & # & : - - @.' @.' @.@.D D D C - 6 D ) ' ) D D D D D D D D D S D o : W W W W W W W W ",
"W W E W W W W W W W : @ 1.2.@.@.@.g & & ; & # & - - - O.' @.@.@.@.D D D C : 6 D _ ' / D D D D D D D D D D D : : W W W W W W W W ",
"W W W W W W W W W R : $ @.X.- 7 @.@.@._ D D D D D - : o # @.$.# o D D D B - 6 D ) @.w - B D D D D D o - D A : : E W W W R W W W ",
"W W ! W W W E W W W : $ $.| : 7 +.@.@.) D A A D D & - & . $.O.  - D A D B o 3 D _ @.i : C D A D D D & - D A : : W W W W W W W W ",
"! W W W 4 W W W W W W W #   ; 6 S S D 0 ; : : o o ; & P P . # - : - - o < v z - - - 8.W y o ; # D D o : & : W R W W W W W W W W ",
"W W W W W W W W W W W E : : : 6 A D A u : : : ; : - : P P X . X O O O O 1 F M : - : 8.E y : : - A D : : : : W W W W W E W W W W ",
"R W W W W W 4 W W W W W W R W 9.- - - 6.W W W > : - : P I v v b n n n v x ; l W W W W W W R >   - - W R W W W W W W 4 W W W W W ",
"W W W W W W W W W W E W W W W 9.- - - 6.W W W > & - & T P v v n n n n v x ; l W W W E W W W : - - - W W W W W W W W W W W W W W ",
"W W 4 R W W W W W 4 W W W W W R W W W W W p ; K I o : - o U U n n n v I H   : -   - 7.W W W W R W W W W W W R W W W W W W W W ! ",
"W W W W W W W W W W W W W W W W W W W W W p - L T .   :   U U n n n v I J - o O o - 7.W W W W W W W W W W W W W W W W W W W W W ",
"W W W W W W W W W W W W W W W E W W W W W p : : - : - - o U I v n n v I J - 2 n r : 8.W W W W E W W W W W W W W W W W W W W W W ",
"W E W W W W W W W W R W W W W W 4 W W W W p > : - O , , X U I v v m m I H : 3 F e : 8.W W W W W 4 W W W W W W R W W W W W R W W ",
"W W W W W W W R W W W W W W W W W W W R W W W > - T I I U U U I I I I I J - o : 5.W W W W W W W W W W R W W W W W W R W W W W W ",
"W W W W W W W W W ! W W W 4 W W W W W 4 W W W > o P I P P P P I U P P U H . &   4.! W W W 4 W W W W W 4 W W W W W W W W W W W W ",
"E W W R W W W W W W W W W W W W R W W W W W W > o P U O     o I P - , n n v z & - - 8.W W W W W R W W W W W W W W W W W W W W W ",
"W W W W W E W W W 4 W W W W W W W W W W W W W > ; K Y o - X X I P - O x N c M * .   7.W W W W W W W W W W W W W W W W W 4 W W W ",
"W W W W E W W W W W W W W W W W W W W E W W W > : - & : o b v v b o -   -   2 v e   8.W W W W W W W W E W W W W W W W W W W W W ",
"W W ! R W W W W W W R W W W W W R W W W W W W 5 : > : : > N N N N > : > > > 3 G a > 8.W W W W W R W W W W W W R W W W W W R W W ",
"W W W W W W W W W W W W W W W W W W W W W W W W E W W W W         W W W W W W W W W W W W W W W W W W W W W W W E W W W W W W W ",
"R W W W W W 4 W W W W W W R W W W ! W R W W W W W W 4 W W : : > > W W W W W 4 W W W W W W R W W W ! W R W W W W W W 4 W W W W W ",
"W W W W W W W W W W W W W W W W W W ! W W E W W W W W W W W W W W W W W W W W W W W W W W W W W W W ! W W E W W W W W W W W W W ",
"W W 4 4 W W W W W R W W W W W R W W W W W W R W W W W W R W W W W W 4 4 W W W W W R W W W W W R W W W W W W R W W W W W R W W W "
};
